<svg xmlns="http://www.w3.org/2000/svg" width="149.395" height="138.105" viewBox="0 0 149.395 138.105">
  <g id="Group_181" data-name="Group 181" transform="translate(-650.135 8.707)">
    <path id="Path_283" data-name="Path 283" d="M832.844,108.14q12.907,0,25.813.005a3.667,3.667,0,1,1,.776,7.293,8.04,8.04,0,0,1-1.019.032q-25.594,0-51.189-.016a5.71,5.71,0,0,1-2.26-.4,3.623,3.623,0,0,1-2.06-3.961,3.736,3.736,0,0,1,3.544-2.927c2.916-.049,5.833-.022,8.75-.023Q824.02,108.138,832.844,108.14Z" transform="translate(-96.984 -74.209)" fill="#0d6bd5"/>
    <g id="Group_179" data-name="Group 179" transform="translate(650.135 -8.707)">
      <path id="Path_284" data-name="Path 284" d="M691.207,79.338l2.151,10.47h1.989q42.395,0,84.79-.008c1.509,0,2.924.157,3.938,1.441a3.276,3.276,0,0,1,.589,3.544,3.583,3.583,0,0,1-2.946,2.314,14.678,14.678,0,0,1-1.747.075q-42.687,0-85.374,0c-5.148,0-7.62-2.008-8.646-6.99q-8.612-41.819-17.2-83.643A2.52,2.52,0,0,0,667.036,4.5C662.2,2.465,657.4.346,652.587-1.733a3.757,3.757,0,0,1-2.449-3.49,2.968,2.968,0,0,1,1.95-3.125,4.987,4.987,0,0,1,3.184-.159C660.666-6.3,666-3.948,671.324-1.584a7.664,7.664,0,0,1,4.44,5.939c.6,3,1.269,5.989,1.794,9,.209,1.2.691,1.532,1.9,1.531q35.974-.059,71.948-.029,19.848,0,39.7-.012c2.827-.006,5.3.663,7.022,3.078a7.148,7.148,0,0,1,1.238,5.811q-3.2,15.558-6.394,31.118c-1.2,5.852-2.43,11.7-3.614,17.556-.969,4.79-3.51,6.925-8.4,6.925q-43.855.008-87.709,0Zm90.745-7.346L792.174,22.35H679.547c.044.424.049.717.107,1,3.222,15.652,6.468,31.3,9.639,46.961.282,1.393.826,1.716,2.183,1.714q44.363-.063,88.726-.032Z" transform="translate(-650.135 8.707)" fill="#0d6bd5"/>
      <path id="Path_285" data-name="Path 285" d="M912.243,310.94a13.12,13.12,0,0,1,26.239-.069,13.12,13.12,0,1,1-26.239.069Zm7.338-.015a5.769,5.769,0,1,0,5.7-5.776A5.8,5.8,0,0,0,919.581,310.925Z" transform="translate(-816.607 -185.98)" fill="#0d6bd5"/>
      <path id="Path_286" data-name="Path 286" d="M785.894,310.992a13.122,13.122,0,1,1,26.243-.024,13.122,13.122,0,0,1-26.243.024Zm7.331-.022a5.773,5.773,0,1,0,5.8-5.82A5.818,5.818,0,0,0,793.224,310.971Z" transform="translate(-736.359 -185.981)" fill="#0d6bd5"/>
      <path id="Path_287" data-name="Path 287" d="M837.689,167.6q-11.527,0-23.055.006a3.691,3.691,0,0,1-3.617-2.225,3.325,3.325,0,0,1,.6-3.8,4.147,4.147,0,0,1,3.4-1.321q15.759.035,31.518.013c4.864,0,9.728-.02,14.592.016a3.7,3.7,0,0,1,3.641,2.977,3.532,3.532,0,0,1-2.182,4.008,6.427,6.427,0,0,1-2.28.312Q849,167.619,837.689,167.6Z" transform="translate(-752.093 -98.609)" fill="#0d6bd5"/>
    </g>
  </g>
</svg>
