<svg xmlns="http://www.w3.org/2000/svg" width="61.949" height="69.133" viewBox="0 0 61.949 69.133">
  <g id="Group_104" data-name="Group 104" transform="translate(-1503.099 -2120.462)">
    <g id="Group_103" data-name="Group 103" transform="translate(7 -13)">
      <g id="Group_102" data-name="Group 102" transform="translate(1285.662 1925.877)">
        <path id="Path_133" data-name="Path 133" d="M269.7,241.183a4.714,4.714,0,0,1,1.811,2.22,10.924,10.924,0,0,1,.831,5.256,18.2,18.2,0,0,1-1.418,5.349l.011-.013a1.354,1.354,0,0,0-.552.9h.01c-.39.451-.777.9-1.17,1.351-.331.376-.139.575.233.719l.013.012a2.985,2.985,0,0,0,.21.48,6.6,6.6,0,0,1,1.124,4.65,18.965,18.965,0,0,1-.951,3.425l.008-.012a.965.965,0,0,0-.4.67l-.009.019a2.61,2.61,0,0,0-.705.878l-.013.02a7.726,7.726,0,0,1-4.449,2.232.633.633,0,0,0-.649.611,4.967,4.967,0,0,1-1.008,2.341s-.008.036-.007.037l-.169.173-.006.01-.166.193-.007-.013a2.332,2.332,0,0,0-.876.844l-.342.281.011-.007-.2.186.006-.017a24.355,24.355,0,0,1-4.317,2.174l.013-.01a3.121,3.121,0,0,0-1.473.371l-1.4.2-3.417-.015.01,0-3.417-.749.008.012a3.8,3.8,0,0,0-1.287-.5l-.534-.212.011.009-1.986-1.085,0,0-1.764-1.3-.043.051.046-.047c-.283-.575-.645-.7-1.136-.215-.225.221-.475.416-.713.622a21.523,21.523,0,0,1-6.673,3.106,15.163,15.163,0,0,1-3.591.323,19,19,0,0,1-4.291-1.125l-.007.011a.7.7,0,0,0-.549-.356v.012a.8.8,0,0,0-.718-.385l.024,0a.843.843,0,0,0-.729-.544l-.009.031c.019-.147-.058-.2-.192-.195l.03-.005c-.073-.29-.207-.521-.541-.557l-.005.034c.057-.191-.054-.29-.2-.368l.012.015c-.013-.138-.056-.254-.211-.288l-.011-.048-.048-.011-.281-.269-1.416-2.271c-.056-.24-.1-.491-.384-.575a.161.161,0,0,0-.014-.129c-.032-.585.019-1.267-.5-1.614a5.487,5.487,0,0,0-1.983-.946l.006,0c-.02-.352-.294-.438-.559-.533l0,.015c-.084-.141-.184-.249-.37-.2l.009.021c.017-.143-.059-.2-.189-.2l.02.009a.462.462,0,0,0-.383-.358,18.343,18.343,0,0,1-3.62-4.986c-1.877-4.2-2.348-8.443-.39-12.76a7.761,7.761,0,0,1,1.764-2.576c.414-.38.444-.637.05-1.094a11.621,11.621,0,0,1-2.861-5.611,9.538,9.538,0,0,1,1.752-7.719,1.346,1.346,0,0,0,.152-1.523c-1.6-4.132-.4-9.372,4.532-11.389a1.227,1.227,0,0,0,.8-.961,12.6,12.6,0,0,1,4.693-7.437,13.2,13.2,0,0,1,6.084-2.254l2.707.022a18.777,18.777,0,0,1,4.766,1.478,14.772,14.772,0,0,1,4.411,3.334c.564.647.866.766,1.542.063a14.427,14.427,0,0,1,7.317-4.308,9.781,9.781,0,0,1,9.151,2.4,3.746,3.746,0,0,0,.361.26.31.31,0,0,0,.328.214l-.021-.017a.331.331,0,0,0,.212.344l0,0c.073.139.166.244.344.211l-.017-.019a.323.323,0,0,0,.2.364h-.014a14.71,14.71,0,0,1,1.984,4.171c.175.823.961.588,1.463.844l3.26,1.673a18.909,18.909,0,0,1,3.166,3.033,13.93,13.93,0,0,1,2.549,8.686,29.032,29.032,0,0,1-.533,3.529l.009-.011-.115.2-.625,1.956h.012a.6.6,0,0,0-.2.551l.013-.016q-1.031,1.83-2.063,3.66c-.3.532.121.589.452.712l-.006-.01Zm-30.9-26.268.006-.005a.168.168,0,0,0-.168-.182l0-.009a.334.334,0,0,0-.235-.316l0,0a.331.331,0,0,0-.324-.232l.012.008a.323.323,0,0,0-.238-.316l.006.011-.193-.189.01.006a2.631,2.631,0,0,0-1.228-.946v-.009a.563.563,0,0,0-.528-.355h-.011a1.088,1.088,0,0,0-.752-.513l.009.009a.408.408,0,0,0-.4-.187H234.7a7.4,7.4,0,0,0-3.337-1.16,11.025,11.025,0,0,1-2.094.084,6.914,6.914,0,0,0-4.223.97l-.192.126.006-.012a3.418,3.418,0,0,0-1.247.915.341.341,0,0,0-.241.306l0,.011a.748.748,0,0,0-.53.532l.051.01-.052,0a6.16,6.16,0,0,0-1.7,2.649c-.545,1.323-.522,1.332.84,1.42a10.912,10.912,0,0,1,4.469,1.946.406.406,0,0,0,.344.234l-.007.025a4.4,4.4,0,0,0,.961,1l-.005-.008.183.2-.013,0a.8.8,0,0,0,.491.582l.009-.006a3.91,3.91,0,0,0,.739,1.245l-.007-.008a2.745,2.745,0,0,0,.738,1.328.06.06,0,0,0,.032.086,1,1,0,0,0,.5.658l.027.061.348.281a2.16,2.16,0,0,0,2.792.173,2.758,2.758,0,0,0,1.166-2.9,2.252,2.252,0,0,0-1.992-1.9c-.611-.115-1.22-.241-1.83-.362a4.9,4.9,0,0,1-3.107-4.647l.066-.379a5.005,5.005,0,0,1,.479-1.539l-.022-.006a.422.422,0,0,0,.375-.225l1.291.007.278.176.062.007a.281.281,0,0,0,.266.2l-.031-.008a4.77,4.77,0,0,1,.2,2.029c-.011.386-.062.795.372,1.023l-.007,0a.293.293,0,0,0,.337.231l-.006-.062v.063c.136.385.522.378.805.428a17.124,17.124,0,0,1,2.126.534,8.211,8.211,0,0,1,2.123,1.494l.39.545-.006,0a6.12,6.12,0,0,1-.509,6.642.048.048,0,0,0-.031.077l-.257.262a5.484,5.484,0,0,1-6.858.726l-.234-.185.012.006a1.754,1.754,0,0,0-.687-.576l-.013,0-.513-.545-.007-.012a15.5,15.5,0,0,0-1.442-2.491l0-.012a2.749,2.749,0,0,0-1.07-1.446l-.01,0a.523.523,0,0,0-.424-.477l-.016-.007a3.143,3.143,0,0,0-1.417-.922l.011.008a5.145,5.145,0,0,0-4.04-.552l-.3.027a4.416,4.416,0,0,0-2.732,1.411l.013,0-.2.213-.005.053a1.96,1.96,0,0,0-.927,1.328l.006.019a5.129,5.129,0,0,0-.3,4.549c.018.446.3.482.623.362a11.629,11.629,0,0,1,2.142-.613c.426-.072.684-.37.59-.981a5.939,5.939,0,0,1,.595-3.743,1.307,1.307,0,0,1,1.735-.668,1.337,1.337,0,0,1,.834,1.742,7.394,7.394,0,0,0-.248,3.008.854.854,0,0,0,.771.9,7.044,7.044,0,0,1,3.911,2.219,1.26,1.26,0,0,0,1.846.324l2.859.018c3.423.8,5.978,2.631,7.148,6.083a8.675,8.675,0,0,1-.669,5.361,1.382,1.382,0,0,0-.37.719l.009,0-.14.2a.22.22,0,0,0-.051.168l.006,0c-.349.942.36,1.456.835,2.064l.01,0a.979.979,0,0,0,.409.685l-.008,0,1.087,2.324a8.543,8.543,0,0,1-.379,5.011,18.387,18.387,0,0,1-1.406,2.355c-.8,1.084-1.517,1.191-2.6.333a2.139,2.139,0,0,1,.133-1.871c1.035-1.354,1.858-2.776,1.49-4.586a2.727,2.727,0,0,0-.618-1.624l0,0-.556-.891v0l-.166-.21.02.014a4.4,4.4,0,0,0-.907-1.454l.014.011a6.556,6.556,0,0,1-.35-2.841l-.006.014a2.806,2.806,0,0,0,.561-1.253l.008.018a.435.435,0,0,0,.29-.416l0,0a.589.589,0,0,0,.218-.532l-.016.01a3.508,3.508,0,0,0-.158-3.652l.014-.009a.528.528,0,0,0-.221-.527l.008.012-.2-.212-.127-.154a.7.7,0,0,0-.407-.544l.007.013-.194-.193.012.007a2.077,2.077,0,0,0-1.235-.772l0,.006c-.2-.227-.421-.423-.763-.307l-.433-.2a3.911,3.911,0,0,0-2.253-.346c-.572-.018-.762.114-.6.77a11.225,11.225,0,0,1-.147,6.431,1.45,1.45,0,0,1-1.779.413,1.376,1.376,0,0,1-.741-1.662,12.9,12.9,0,0,0,.043-3.547,5.373,5.373,0,0,0-5.268-5.229,5.723,5.723,0,0,0-5.208,1.751l0,0a3.164,3.164,0,0,0-.377.371,7.436,7.436,0,0,0,.866,9.583l0-.01.19.191-.018.012.232.3c.173.383.447.413.814.276.615-.23,1.236-.45,1.868-.627.347-.1.31-.215.2-.5a12.908,12.908,0,0,1-.871-5.688,1.594,1.594,0,0,1,1.185-1.548,1.721,1.721,0,0,1,1.872,1.266c-.163.075-.143.2-.086.329l-.091.367a9.253,9.253,0,0,0,.662,4.163,1.81,1.81,0,0,0,2.006,1.447l2.126.712a2.054,2.054,0,0,0,.939.527l0,0a.593.593,0,0,0,.5.246l.029-.038-.037.031.2.167h-.015a.6.6,0,0,0,.54.375l-.008,0a3.557,3.557,0,0,0,1.076,1.071,1.072,1.072,0,0,0,.442.551l.255.3a.81.81,0,0,0,.419.554l-.01,0a3.723,3.723,0,0,0,.725,1.266l-.01-.013a24.128,24.128,0,0,1,1.285,4.506,35.764,35.764,0,0,1-.166,4.509c-.041.288-.185.649.154.9v0a7.419,7.419,0,0,1,3.085,1.773h0a6.575,6.575,0,0,1,.357,7.377,4.271,4.271,0,0,1-1.724,1.7,4.784,4.784,0,0,1-2.449.776,8.608,8.608,0,0,1-3.566-1.038.548.548,0,0,0-.5-.236l.025-.012c-.652-.7-1.271-1.4-.741-2.452l-.01-.06a.244.244,0,0,0,.2-.264l.022.039a3.808,3.808,0,0,1,1.371-.248l.364.154.288.1.051,0-.05.011a2.117,2.117,0,0,0,1.66.867v-.021a2.092,2.092,0,0,0,2.718-1.113.9.9,0,0,0,.246-.684l-.029-.013a2.684,2.684,0,0,0-1.051-3.332l-.005-.01c-.2-.387-.606-.384-.923-.4-.669-.023-1.342.064-2.014.106l-.31-.191a2.122,2.122,0,0,1-.446-1.96A15.045,15.045,0,0,0,229,253.2a6.835,6.835,0,0,0-1.029-3.567.112.112,0,0,0-.064-.124,1.534,1.534,0,0,0-.629-1.11l-.011.024a.258.258,0,0,0-.2-.267l.015-.066a.431.431,0,0,0-.346-.416l-.033.057.037-.054a.452.452,0,0,0-.359-.365h.01a.118.118,0,0,0-.058-.134l-.184-.172a1.306,1.306,0,0,0-.71-.563l.006.009a.772.772,0,0,0-.546-.382,2.321,2.321,0,0,0-1.408-.562v-.025c-1.654-.926-4.959-.469-6.57.908l-.032.013a.578.578,0,0,0-.515.365l.012,0a.19.19,0,0,0-.194.185l-.022-.021a1.058,1.058,0,0,0-.708.71l.012.025a.174.174,0,0,0-.185.186l-.014-.013a.725.725,0,0,0-.5.6l-.019.073a2.781,2.781,0,0,0-.74,1.211,12.183,12.183,0,0,0,.952,10.614l-.007-.005a6.618,6.618,0,0,0,1.456,2.141l.016.011a.669.669,0,0,0,.462.418l.049-.016-.046.024a7.4,7.4,0,0,0,2.34,2c.271.186.45.095.436-.26l-.006.005a22.894,22.894,0,0,0,1.546-4.374c.086-.541.127-1.087-.454-1.425l.006.016-.192-.223a.165.165,0,0,0-.035-.124.576.576,0,0,0-.465-.425l-.047.03.051-.022-.187-.182.01-.015a1.936,1.936,0,0,0-.785-.8l-.024-.021a.323.323,0,0,0-.3-.236l.017.012c-.012-.115-.066-.186-.19-.188l.02,0-.944-1.953.014.01a9.41,9.41,0,0,1,.328-4.669.877.877,0,0,0,.384-.525l-.016.007.209-.192a.278.278,0,0,0,.138-.021l1.073.017.685.414a.1.1,0,0,1-.017,0,3.61,3.61,0,0,1,.235,1.543,3.66,3.66,0,0,0-.012,2.916l-.009,0a.993.993,0,0,0,.521.749v-.015a1.494,1.494,0,0,0,.736.765l.247.269,1.212,1.292-.007-.007.365.742a7.674,7.674,0,0,1-.191,4.812l.011,0a11.234,11.234,0,0,0-1.211,2.971,4.4,4.4,0,0,0,.99,4.482l0,.024a1.23,1.23,0,0,0,.559.725,7.289,7.289,0,0,0,5.622,2.821,10.6,10.6,0,0,0,3.621-.638c.233-.1.531-.028.714-.264l-.008.014a2.477,2.477,0,0,0,1.266-.557l-.012.01a.4.4,0,0,0,.376-.186l-.012.012a1.242,1.242,0,0,0,.728-.375l-.01.008.217-.158,0,.02a.605.605,0,0,0,.543-.367h-.011a3.262,3.262,0,0,0,1.635-1.268l-.057-.027.055.032c.111-.01.179-.063.179-.182l.032.015a.38.38,0,0,0,.344-.34v-.025a.405.405,0,0,0,.351-.372l-.012.009,1.04-.568a2.115,2.115,0,0,1,1.772,1.025,9.964,9.964,0,0,0,4.521,3.089,2.017,2.017,0,0,0,1.069.4.346.346,0,0,0,.372.12,6.437,6.437,0,0,0,2.177.441l.054-.031c.119.168.288.143.457.121l2,0,.081.014.078-.026a.7.7,0,0,0,.563-.105,9.173,9.173,0,0,0,4.5-1.469h0a2.757,2.757,0,0,0,1.07-.724h.008l.192-.175,0,.006a1.167,1.167,0,0,0,.592-.667l-.048-.036.053.029c1.21-.892,1.126-2.448-.19-3.537h-.007a.466.466,0,0,0-.389-.337l0,.013c-.073-.172-.227-.176-.379-.184l.013.009c-.138-.2-.354-.172-.555-.184l.014.005a1.386,1.386,0,0,0-.537-.587.119.119,0,0,0-.027-.115,2.115,2.115,0,0,1-.01-1.267.1.1,0,0,0,.039-.112l.59-.586a2.571,2.571,0,0,1,1.805.235,8.144,8.144,0,0,1,2.041,1.556c.3.358.3.993.946,1.037l.532-.133a3.07,3.07,0,0,0,2.409-1.221l.017.012a.366.366,0,0,0,.334-.38l-.024-.047.017.05a5.046,5.046,0,0,0,1.219-4.708,2.089,2.089,0,0,0-.994-1.525l-.035-.024c-.609-.679-1.034-.662-1.7.068l.009,0c-.511.349-.516.935-.588,1.44-.258,1.821-2.879,2.528-4.157,1.488-.322-.262-.656-.511-.984-.766l.008.009a10.325,10.325,0,0,0-1.941-3.1v-.008a1.273,1.273,0,0,0-.7-.721l-.024.022a.26.26,0,0,0-.2-.248.05.05,0,0,0-.044-.073,6.924,6.924,0,0,0-5.376-1.573l-.381.056c-.751.01-1.5.386-2.254.031l-.187-.16a1.724,1.724,0,0,1-.231-1.919l.287-.324a10.915,10.915,0,0,1,3.313-.6,12.42,12.42,0,0,1,5.016,1.078h0a.55.55,0,0,0,.507.243l-.016,0a.5.5,0,0,0,.41.3h-.005a20.091,20.091,0,0,1,3.185,3.286l0,0a3.713,3.713,0,0,0,1.061,1.855l.592-1.545a4.382,4.382,0,0,1,3.44-2.159.963.963,0,0,0,.787-.653l.01-.005a.8.8,0,0,0,.537-.523l-.008-.024.174-.2,0,.013a1.963,1.963,0,0,0,.727-1.089h-.007a8.508,8.508,0,0,0,.87-7.438l.014.008a2.058,2.058,0,0,0-.9-1.518,1.982,1.982,0,0,0-2.477-.475,9.144,9.144,0,0,1-1.91.739,5.192,5.192,0,0,1-4.415-1.456,6.44,6.44,0,0,1-1.327-2.8c-.1-1.1.344-1.844,1.2-1.995.8-.14,1.462.423,1.631,1.524a2.083,2.083,0,0,0,1.277,1.685,3.023,3.023,0,0,0,3.62-1.461,5.607,5.607,0,0,0,.927-1.433l0,0a7.8,7.8,0,0,0,1.471-2.877l-.011.014a1.209,1.209,0,0,0,.217-.271,12.361,12.361,0,0,0,.992-7.064,8.267,8.267,0,0,0-1.895-4.444l0,.015a.372.372,0,0,0-.219-.347l.008,0a2.122,2.122,0,0,0-1.108-1.1,9.816,9.816,0,0,0-3.457-2.34c-.438-.185-.645-.249-.747.377a18.253,18.253,0,0,1-1.386,4.348,9.185,9.185,0,0,0-.907,2.8,7.081,7.081,0,0,0-.159,4.214,2.144,2.144,0,0,0,2.692,1.82.4.4,0,0,0,.367-.2l0,0c.836-.74,1-1.3.448-2.552a4.87,4.87,0,0,1,.148-4.78l-.027-.055.022.057c.288-.09.372-.358.5-.583l-.011.007.2-.19c1.248-.966,1.769-.932,2.677.174-.008.5.187,1.072-.265,1.434-1.16.929-1.088,2-.491,3.184a4.379,4.379,0,0,1,.239.766,4.7,4.7,0,0,1-2.3,5.241,4.811,4.811,0,0,1-4.912-.386l.006.007a16.084,16.084,0,0,1-1.978-2.355l.012.019c-.031-.252.09-.545-.192-.731l.009.01a5.37,5.37,0,0,0-.263-1.472.2.2,0,0,0-.037-.152.1.1,0,0,0-.029-.141.1.1,0,0,0-.012-.125l.113-2.06q.023-.273.046-.547a.056.056,0,0,0,0-.092,1.147,1.147,0,0,0,.18-.8l.126-.361.058-.534-.012.013,1.272-3.431-.011.01.127-.2c.215-.583.467-1.155.638-1.75a7.489,7.489,0,0,0,.141-4.1l.028-.041-.026-.043c-.005-.208.026-.429-.19-.567l.01.01c-.009-.293,0-.593-.313-.76l-.007,0a5.393,5.393,0,0,0-1.943-2.733,6.8,6.8,0,0,0-7.154-1.39l.012-.01a1.863,1.863,0,0,0-1.274.5l-.043,0a.551.551,0,0,0-.491.239l.012-.011a.382.382,0,0,0-.366.2l.006-.009a2.837,2.837,0,0,0-1.484,1.055l.006-.01a.184.184,0,0,0-.186.185l-.015-.025a.092.092,0,0,0-.112.049,8.8,8.8,0,0,0-2.531,2.524,2.4,2.4,0,0,0-.881,1.2l-.3-.075.023-.073-.012.067-.072.167a1.884,1.884,0,0,1-1.207-.384.629.629,0,0,0-.4-.361l.008.007a.781.781,0,0,0-.5-.58l-.01.006-.163-.184,0-.016c-.038-.241-.119-.45-.387-.52l.008.006Z" fill="#0d6bd5"/>
        <path id="Path_134" data-name="Path 134" d="M373.388,243.658c.622-.228,1.03-.931,1.808-.813a.251.251,0,0,0,.165.018c1.117.728,1.267,1.293.618,2.459a6.769,6.769,0,0,0-.99,2.379l.013,0a3.936,3.936,0,0,0-.011,3.643l-.014-.012a.375.375,0,0,0,.192.373h-.007a1.609,1.609,0,0,0,1.258.919l0-.015c.192.259.473.216.74.216l.38.078c2.1.182,3.3-.939,3.021-2.9a18.662,18.662,0,0,1-.288-5.879l-.013.016c.23-.128.2-.344.191-.555l-.012.014c.176-.065.18-.227.212-.374a5.146,5.146,0,0,1,3.657-3.082c.915-.235,1.694,0,1.974.691a1.465,1.465,0,0,1-.9,1.967c-.1.052-.208.105-.312.158a2.294,2.294,0,0,0-1.949,2.053,4.039,4.039,0,0,0-.1,1.84c.385,2.506.883,5.052-.858,7.317l.007-.019-.5.415-.634.5-.05-.012-.04.032a6.519,6.519,0,0,1-6.859-.639c.213,1.593.11,2.974.227,4.342a2.78,2.78,0,0,0,1.355,2.3,1.293,1.293,0,0,0,.758.718,4.212,4.212,0,0,0,5.6.261,2.85,2.85,0,0,0,1.266-1.744l0,0c.291-.313.225-.732.271-1.1a2.53,2.53,0,0,1,.639-1.78l-.006.009c1.509-.4,2.2.136,2.205,1.689a6.162,6.162,0,0,1-.624,2.766,6.052,6.052,0,0,0-.754,1.411l.015.048-.007-.049c-.12,0-.17.077-.183.186l.012-.006a.181.181,0,0,0-.194.18l-.019-.008a.79.79,0,0,0-.524.548l.012-.009a.359.359,0,0,0-.339.221l.005-.011a.821.821,0,0,0-.548.366l.013-.01a7.848,7.848,0,0,1-6.1.8l-.363-.051-1.972-1.072c.173,2.387.39,4.641.476,6.9.037.968.343,1.539,1.309,1.7a3.344,3.344,0,0,0,3.043-.9,1.266,1.266,0,0,1,1.979-.092c.6.608.878.275,1.088-.279a4.394,4.394,0,0,1,3.46-2.9,4.442,4.442,0,0,1,3.2.809l.878.927-.009-.013a7.511,7.511,0,0,1,.757,2.8,10.206,10.206,0,0,0,.2,2.115c.137.645.266,1.36,1.03,1.64.49.127.964.481,1.489.1a.773.773,0,0,0,.781-.669l.024-.01c.389-.21.373-.614.488-.967.309-.946-.237-1.933.16-2.868,1.414-1.171,2.4-.808,2.716,1a5.47,5.47,0,0,1-3.126,6.28,8.287,8.287,0,0,1-2.488.245c-3.382-1-3.983-3.519-4.137-6.018-.016-.266-.028-.532-.043-.8a.357.357,0,0,0-.133-.4.148.148,0,0,0-.009-.133c.026-.154.059-.309-.124-.4,0,0,.009-.051.009-.05a.939.939,0,0,0-1.023-.8,1.381,1.381,0,0,0-1.342.864,3.891,3.891,0,0,0-.359,1.81c-.024.506-.018,1.015-.077,1.517a1.387,1.387,0,0,1-1.54,1.383c-.885-.04-1.3-.531-1.314-1.542,0-.06.01-.12,0-.179-.044-.451.069-1.149-.169-1.3-.523-.336-.736.4-1.1.654a5.568,5.568,0,0,1-4.5.943c-.37.051-1.045-.965-1.076.246-.059,2.258-.27,4.5-.516,6.743l-.046.669c-.373,1.44-.68,2.894-.908,4.364l.013-.015c-.255.189-.167.478-.211.728-.252.894-.58,1.722-1.634,1.948a.421.421,0,0,1-.473-.139c-.037-.192-.2-.2-.343-.233l-.159-.143-.375-.416a.078.078,0,0,0-.024-.1q.014-.718.027-1.435l-.011.016a4.418,4.418,0,0,0,.464-1.645,22.1,22.1,0,0,0,.809-4.309,28.969,28.969,0,0,0,.482-5.052,77.649,77.649,0,0,0-.348-10.437c-.148-1.846-.314-3.69-.439-5.537a81.1,81.1,0,0,1-.36-8.15,31.644,31.644,0,0,1,.837-6.287l0,.01C372.5,245.625,373.24,244.763,373.388,243.658Z" transform="translate(-131.412 -26.626)" fill="#0d6bd5"/>
        <path id="Path_135" data-name="Path 135" d="M414.576,499.026l-.909.055-.695-.086.012.012a.366.366,0,0,0-.379-.139l-1.389-.75a4.323,4.323,0,0,1-.754-3.63c.081-.5.218-.991.257-1.492a1.811,1.811,0,0,0-1-2.076l.006.006a2.833,2.833,0,0,0-2.76-.01,2.617,2.617,0,0,0-.75,4.394l.012-.045,0,.046a2.269,2.269,0,0,0,1.093,1.257l.041-.059-.038.06c.884,1.494.61,2.363-.841,2.666h-.192l-.837-.273,0,.013-.181-.179.009-.017a.784.784,0,0,0-.52-.531.233.233,0,0,0-.016-.019.421.421,0,0,0-.331-.346h-.019a.347.347,0,0,0-.234-.317l.008,0a14.894,14.894,0,0,1-1.63-3.223c0-.18.008-.361-.013-.539-.3-2.564.994-4.242,3.055-5.494.157-.028.318-.048.4-.215l-.008.01c2.463-.754,4.718-.514,6.626,1.384v0a.54.54,0,0,0,.314.4l-.011,0,.179.342a5.724,5.724,0,0,1,.455,3.225c-.093.649-.166,1.3-.259,1.95-.087.6.2.817.759.762a.35.35,0,0,0,.365.15l.324.069,0-.012a.331.331,0,0,0,.344.209l-.014,0C415.64,497.925,415.587,498.2,414.576,499.026Z" transform="translate(-157.475 -229.702)" fill="#0d6bd5"/>
      </g>
    </g>
  </g>
</svg>
