<svg xmlns="http://www.w3.org/2000/svg" width="269.237" height="269.237" viewBox="0 0 269.237 269.237">
  <g id="Group_223" data-name="Group 223" transform="translate(-1310.402 -3741.079)">
    <g id="Group_120" data-name="Group 120" transform="translate(1382.779 3827.879)">
      <g id="Group_119" data-name="Group 119" transform="translate(0 0)">
        <path id="Path_207" data-name="Path 207" d="M106.53,11.552c-2.769-.092-4.4-.068-5.4-.028-.934.037-1.876-.088-2.806.028a2.087,2.087,0,0,1-1.332-.053c-.555-.3-.656-.941-.934-1.739,0,0-.024-.07-1.339-2.524a15.083,15.083,0,0,0-5.853-5.343A16.527,16.527,0,0,0,80.819,0a18.639,18.639,0,0,0-7.167,1.479,27.576,27.576,0,0,0-8.046,5.555,47.405,47.405,0,0,0-3.246,3.6c-.14.2-.321.376-.459.582a.814.814,0,0,1-.219.23.88.88,0,0,1-.273.116c-.3.065-30.6-.026-46.208-.077Q7.6,23.889,0,36.293C11.987,49.9,17.906,56.8,20.821,60.239c6.235,7.353,9.352,11.03,10.537,12.471,1.063,1.3,2.189,2.541,3.239,3.852.446.553.947,1.063,1.4,1.609.693.827.956,1.19,1.144,1.124.258-.09.16-.914.1-1.8,0,0-.057-.921.061-4.025a17.463,17.463,0,0,1,.9-4.549,53.671,53.671,0,0,1,4.917-11.159A84.466,84.466,0,0,1,48.678,49.3c4.024-5.433,6.83-8,6.55-8.309-.216-.24-2.25.965-10.8,7.893A58.942,58.942,0,0,0,31.483,64.74S12.963,44.074,11.128,40.82a2.8,2.8,0,0,1-.4-2.375,3.07,3.07,0,0,1,2.137-1.57c.5-.153,1.037-.293,1.61-.416a19.771,19.771,0,0,1,3.547-.433,21.924,21.924,0,0,1-5.745-.711C10.045,34.729,9.52,34.2,9.262,33.7a3.573,3.573,0,0,1,.343-3.088l8.619-13.571q31.405-.059,62.811-.12a51.746,51.746,0,0,1-3.375,6.907,51.8,51.8,0,0,1-3.983,5.851Q64.3,41.839,54.918,54.008A51.4,51.4,0,0,0,51.8,58.336c-2.629,4.079-5.487,8.516-6.406,14.572a29.227,29.227,0,0,0,2.953,17.3,39.178,39.178,0,0,0,5.028,7.639l7.475,8.569,61.011-69.586Zm-41.955-.017c-.468,0,0-.606,0-.606A28.464,28.464,0,0,1,68.2,7.449a9.352,9.352,0,0,1,8.022-.986c4.414,1.3,4.379,5.072,4.379,5.072Zm39.44,24.629,4.335.481s2,.315,2.524,1.562.4,2.189-1.03,4.033L82.195,74.223,60.932,98.594S56.4,93.261,55.679,90.77s-4.9-12.029,1.334-19.87S79.675,45.717,79.675,45.717,92.406,31.334,94.068,27.424s1.782-3.184,2.491-5.815a29.1,29.1,0,0,0,.623-3.9l.138-.8h6.231l8.482,13.726s2.613,3.512-1.9,4.6a13.5,13.5,0,0,1-4.168.461l-1.92.079S103.56,36.1,104.015,36.164Z" fill="#0d6bd5"/>
      </g>
    </g>
    <circle id="Ellipse_3" data-name="Ellipse 3" cx="126.09" cy="126.09" r="126.09" transform="translate(1312.504 3756.379) rotate(-3)" fill="none" stroke="#0d6bd5" stroke-miterlimit="10" stroke-width="4"/>
    <g id="Group_128" data-name="Group 128" transform="matrix(0.966, 0.259, -0.259, 0.966, 1327.835, 3866.473)">
      <g id="Group_127" data-name="Group 127" transform="translate(0 0)">
        <path id="Path_243" data-name="Path 243" d="M5.032,18.219A5.937,5.937,0,0,1,2.271,16,12.485,12.485,0,0,1,.356,11.97,8.169,8.169,0,0,1,.29,7.434a7.857,7.857,0,0,1,2.4-3.773A11.329,11.329,0,0,1,7.163,1.275L9.713.548a10.131,10.131,0,0,1,7.236.227,7.46,7.46,0,0,1,4.058,5,7.872,7.872,0,0,1-.155,5.469,6.812,6.812,0,0,1-3.726,3.507l-.488-1.7a5.44,5.44,0,0,0,2.855-2.771A6.054,6.054,0,0,0,19.57,6.2a5.7,5.7,0,0,0-3.288-3.9,9.068,9.068,0,0,0-6.143-.029l-2.385.681A10.353,10.353,0,0,0,3.906,4.9a6.457,6.457,0,0,0-2.1,3.027A6.17,6.17,0,0,0,1.8,11.559,9.757,9.757,0,0,0,3.57,15.145a4.24,4.24,0,0,0,1.5,1.219l5.21-1.487L8.735,9.459l1.441-.411L12.21,16.17Z" fill="#0d6bd5"/>
        <path id="Path_244" data-name="Path 244" d="M23.327,13.2l-12.8,6.423a7.255,7.255,0,0,1-3.717.817A6.134,6.134,0,0,1,3.483,19.2,8.482,8.482,0,0,1,1,16.133a7.6,7.6,0,0,1-.765-5.557A6.626,6.626,0,0,1,3.785,6.482L16.7,0l.788,1.572L4.8,7.937a5.458,5.458,0,0,0-3,3.2,5.66,5.66,0,0,0,.535,4.327,5.614,5.614,0,0,0,3.153,3,5.456,5.456,0,0,0,4.333-.489l12.7-6.372Z" transform="translate(7.322 16.17)" fill="#0d6bd5"/>
        <path id="Path_245" data-name="Path 245" d="M12.812,13.5,7.129,5.857,1.109,7.639,0,6.148,21.575,0l1.007,1.354-12.1,18.89-1.1-1.48ZM8.658,5.4l5.021,6.754,6.66-10.2Z" transform="translate(14.262 36.7)" fill="#0d6bd5"/>
        <path id="Path_246" data-name="Path 246" d="M11.738,14.3,7.312,10.112,1.3,16.463,0,15.235,14.427,0l4.949,4.687a7.781,7.781,0,0,1,2.691,4.788,5.68,5.68,0,0,1-1.758,4.6,5.67,5.67,0,0,1-3.3,1.769,6.038,6.038,0,0,1-3.766-.633L10.905,25.3l-.129.136-1.37-1.3Zm-3.4-5.28,3.944,3.736A5.032,5.032,0,0,0,15.766,14.3a4.3,4.3,0,0,0,3.247-1.458,4.325,4.325,0,0,0,1.346-3.476,5.851,5.851,0,0,0-2.034-3.615L14.694,2.316Z" transform="translate(28.418 45.584)" fill="#0d6bd5"/>
        <path id="Path_247" data-name="Path 247" d="M14.548,15.675,6.606,10.415,1.55,14.135,0,13.109,18.206,0l1.405.931L14.646,22.808,13.108,21.79ZM7.89,9.468l7.017,4.647,2.8-11.851Z" transform="translate(42.278 60.446)" fill="#0d6bd5"/>
        <path id="Path_248" data-name="Path 248" d="M14.389,25.408l-1.633-.69L8.635,3.484,1.646,20.023,0,19.328,8.166,0,9.812.7l4.13,21.253L20.936,5.4l1.62.684Z" transform="translate(61.841 66.467)" fill="#0d6bd5"/>
        <path id="Path_249" data-name="Path 249" d="M15.746,5.005,8.731,3.426,4.454,22.435l-1.729-.388L7,3.038,0,1.462.329,0,16.076,3.543Z" transform="translate(85.614 73.069)" fill="#0d6bd5"/>
        <path id="Path_250" data-name="Path 250" d="M12.169,11.6l-9.8-.588L1.86,19.555l11.264.675-.09,1.5L0,20.944,1.258,0,14.218.777l-.09,1.5L2.938,1.6,2.462,9.514l9.8.588Z" transform="translate(102.567 76.72)" fill="#0d6bd5"/>
        <path id="Path_251" data-name="Path 251" d="M12.572,11.006l-9.77.932.814,8.522,11.232-1.071.142,1.492-13,1.24L0,1.233,12.926,0l.142,1.492L1.907,2.556l.753,7.89,9.769-.932Z" transform="translate(119.372 76.105)" fill="#0d6bd5"/>
        <path id="Path_252" data-name="Path 252" d="M5.495,22.144,0,1.894,5.661.359A9.115,9.115,0,0,1,10.433.281a8.119,8.119,0,0,1,3.961,2.411A10.6,10.6,0,0,1,16.806,7.2l.505,1.864a10.606,10.606,0,0,1,.207,5.11A8.1,8.1,0,0,1,15.3,18.259a9.412,9.412,0,0,1-4.273,2.383ZM2.1,2.877l4.71,17.357,3.839-1.042a6.842,6.842,0,0,0,4.556-3.515,8.5,8.5,0,0,0,.375-6.266L15.1,7.629A8.305,8.305,0,0,0,11.675,2.55,6.731,6.731,0,0,0,6.08,1.8Z" transform="translate(134.727 73.752)" fill="#0d6bd5"/>
        <path id="Path_253" data-name="Path 253" d="M12.268,11.245,3.959,15.9l1,6.2-1.622.909L0,.824,1.471,0,18.656,14.42l-1.609.9ZM3.7,14.327l7.341-4.115L1.786,2.3Z" transform="translate(162.999 64.306)" fill="#0d6bd5"/>
        <path id="Path_254" data-name="Path 254" d="M17.9,15.54l-1.277,1.166L3.872,2.751,1.089,8.165,0,6.974,3.487.194,3.7,0Z" transform="translate(179.715 50.147)" fill="#0d6bd5"/>
        <path id="Path_255" data-name="Path 255" d="M15.242,5.154q3.457,2.784,4.227,5.493a5.5,5.5,0,0,1-1.219,5.18,5.558,5.558,0,0,1-4.747,2.3q-2.8-.123-6.18-2.791L4.393,12.978Q.946,10.2.2,7.5A5.544,5.544,0,0,1,1.438,2.33,5.576,5.576,0,0,1,6.133,0q2.742.1,6.112,2.738ZM11.228,4.143a10.233,10.233,0,0,0-4.979-2.5,3.928,3.928,0,0,0-3.665,1.61,3.929,3.929,0,0,0-.8,3.869A9.9,9.9,0,0,0,5.165,11.4l3.21,2.585a10.223,10.223,0,0,0,5.04,2.495,3.946,3.946,0,0,0,3.7-1.564,3.89,3.89,0,0,0,.744-3.887,10.272,10.272,0,0,0-3.489-4.353Z" transform="translate(190.813 37.892)" fill="#0d6bd5"/>
        <path id="Path_256" data-name="Path 256" d="M14.99,3.745Q18.83,5.969,20,8.53a5.5,5.5,0,0,1-.415,5.3,5.56,5.56,0,0,1-4.342,3q-2.783.3-6.533-1.818L5.459,13.13Q1.629,10.914.482,8.35A5.546,5.546,0,0,1,.916,3.057,5.576,5.576,0,0,1,5.2.043q2.725-.321,6.457,1.775Zm-4.122-.388a10.249,10.249,0,0,0-5.3-1.713,3.926,3.926,0,0,0-3.376,2.15,3.928,3.928,0,0,0-.2,3.945A9.9,9.9,0,0,0,5.98,11.451l3.567,2.065a10.223,10.223,0,0,0,5.362,1.7,3.946,3.946,0,0,0,3.419-2.109,3.886,3.886,0,0,0,.143-3.955,10.269,10.269,0,0,0-4.111-3.771Z" transform="translate(199.864 24.739)" fill="#0d6bd5"/>
        <path id="Path_257" data-name="Path 257" d="M2.96,14.454a4.349,4.349,0,0,1-2.53-2.142,3.868,3.868,0,0,1-.163-3.19A3.869,3.869,0,0,1,2.422,6.766a4.465,4.465,0,0,1,3.4-.012l.963.346A4.345,4.345,0,0,1,9.29,9.218,3.828,3.828,0,0,1,9.457,12.4a3.957,3.957,0,0,1-2.138,2.37,4.385,4.385,0,0,1-3.41.031Zm1.511-.942a3.276,3.276,0,0,0,2.331.048,2.492,2.492,0,0,0,1.49-1.585,2.411,2.411,0,0,0-.161-2.133A3.416,3.416,0,0,0,6.249,8.393l-.992-.356a3.282,3.282,0,0,0-2.339-.044A2.46,2.46,0,0,0,1.433,9.542a2.47,2.47,0,0,0,.155,2.13,3.387,3.387,0,0,0,1.918,1.494Zm14.38,1.677-1.016.784L5.866.783,6.883,0ZM17.639,8.506a4.328,4.328,0,0,1-2.524-2.14,3.869,3.869,0,0,1-.161-3.174A3.923,3.923,0,0,1,17.1.831,4.426,4.426,0,0,1,20.511.809l.963.346A4.327,4.327,0,0,1,24,3.295a3.864,3.864,0,0,1,.161,3.174,3.921,3.921,0,0,1-2.143,2.362,4.387,4.387,0,0,1-3.388.031Zm1.52-.924a3.293,3.293,0,0,0,2.343.054,2.492,2.492,0,0,0,1.49-1.585A2.427,2.427,0,0,0,22.836,3.9a3.464,3.464,0,0,0-1.908-1.46l-.992-.356a3.256,3.256,0,0,0-2.35-.056,2.5,2.5,0,0,0-1.466,1.579,2.486,2.486,0,0,0,.139,2.132A3.33,3.33,0,0,0,18.153,7.22Z" transform="translate(206.142 7.647)" fill="#0d6bd5"/>
      </g>
    </g>
    <circle id="Ellipse_4" data-name="Ellipse 4" cx="89.159" cy="89.159" r="89.159" transform="matrix(0.966, 0.259, -0.259, 0.966, 1381.975, 3766.5)" fill="none" stroke="#1a1818" stroke-miterlimit="10" stroke-width="4"/>
    <circle id="Ellipse_5" data-name="Ellipse 5" cx="89.159" cy="89.159" r="89.159" transform="translate(1351.316 3791.326) rotate(-3)" fill="none" stroke="#0d6bd5" stroke-miterlimit="10" stroke-width="4"/>
    <g id="Group_130" data-name="Group 130" transform="matrix(0.966, 0.259, -0.259, 0.966, 1365.898, 3734)">
      <g id="Group_129" data-name="Group 129" transform="translate(0 0)">
        <path id="Path_258" data-name="Path 258" d="M21.684,5.007l-.411,1.776L1.862,2.286l.818,6.363L1.022,8.265,0,.3.069,0Z" transform="translate(0 88.151)" fill="#0d6bd5"/>
        <path id="Path_259" data-name="Path 259" d="M15.406,2.805q4.3,1.83,5.861,4.358a5.8,5.8,0,0,1,.25,5.6,5.859,5.859,0,0,1-4.154,3.7q-2.871.678-7.068-1.058L6.649,13.852Q2.358,12.028.827,9.5A5.845,5.845,0,0,1,.6,3.9,5.877,5.877,0,0,1,4.69.2Q7.5-.49,11.675,1.219Zm-4.361.126A10.8,10.8,0,0,0,5.277,1.824,4.14,4.14,0,0,0,2.023,4.508a4.143,4.143,0,0,0,.3,4.154,10.44,10.44,0,0,0,4.658,3.366l4,1.7A10.776,10.776,0,0,0,16.8,14.812a4.158,4.158,0,0,0,3.3-2.647,4.1,4.1,0,0,0-.362-4.156A10.818,10.818,0,0,0,14.958,4.6Z" transform="translate(5.069 66.863)" fill="#0d6bd5"/>
        <path id="Path_260" data-name="Path 260" d="M15.912,4.432q3.925,2.545,5.023,5.3a5.8,5.8,0,0,1-.72,5.561,5.858,5.858,0,0,1-4.729,2.924q-2.945.173-6.78-2.261L5.382,13.8Q1.469,11.266.4,8.508a5.844,5.844,0,0,1,.739-5.549A5.875,5.875,0,0,1,5.807.014q2.886-.192,6.7,2.211ZM11.6,3.8A10.8,10.8,0,0,0,6.1,1.719,4.138,4.138,0,0,0,2.437,3.8a4.14,4.14,0,0,0-.424,4.142A10.442,10.442,0,0,0,6.02,12.063l3.645,2.364A10.778,10.778,0,0,0,15.218,16.5a4.157,4.157,0,0,0,3.711-2.037,4.1,4.1,0,0,0,.36-4.156,10.817,10.817,0,0,0-4.126-4.188Z" transform="translate(13.994 50.009)" fill="#0d6bd5"/>
        <path id="Path_261" data-name="Path 261" d="M1.238,11.31A4.587,4.587,0,0,1,0,8.042,4.081,4.081,0,0,1,1.486,5.02,4.081,4.081,0,0,1,4.678,3.951,4.71,4.71,0,0,1,7.813,5.678l.71.811A4.576,4.576,0,0,1,9.75,9.724a4.031,4.031,0,0,1-1.471,3.013A4.172,4.172,0,0,1,5.1,13.828a4.622,4.622,0,0,1-3.157-1.717Zm1.875-.094a3.455,3.455,0,0,0,2.122,1.237,2.629,2.629,0,0,0,2.184-.7,2.54,2.54,0,0,0,.943-2.048,3.6,3.6,0,0,0-.991-2.3l-.731-.836A3.463,3.463,0,0,0,4.506,5.335,2.6,2.6,0,0,0,2.345,6,2.608,2.608,0,0,0,1.4,8.045a3.572,3.572,0,0,0,1,2.357Zm12.391,8.9-1.337.2L10.912.2,12.249,0Zm2.3-6.778a4.561,4.561,0,0,1-1.229-3.263A4.077,4.077,0,0,1,18.052,7.07a4.14,4.14,0,0,1,3.183-1.08,4.671,4.671,0,0,1,3.157,1.728l.71.811a4.558,4.558,0,0,1,1.23,3.262A4.075,4.075,0,0,1,24.857,14.8a4.138,4.138,0,0,1-3.183,1.079,4.62,4.62,0,0,1-3.136-1.7Zm1.874-.074a3.468,3.468,0,0,0,2.131,1.248,2.627,2.627,0,0,0,2.185-.7,2.557,2.557,0,0,0,.954-2.058,3.64,3.64,0,0,0-1.011-2.32L23.207,8.6a3.427,3.427,0,0,0-2.136-1.253,2.64,2.64,0,0,0-2.158.7,2.62,2.62,0,0,0-.963,2.036,3.5,3.5,0,0,0,.989,2.329Z" transform="translate(30.641 27.142)" fill="#0d6bd5"/>
        <path id="Path_262" data-name="Path 262" d="M20.353,15.709a6.265,6.265,0,0,1-1.9,3.213,13.158,13.158,0,0,1-3.918,2.6,8.614,8.614,0,0,1-4.722.752,8.293,8.293,0,0,1-4.3-1.937,11.931,11.931,0,0,1-3.161-4.308l-1.143-2.55A10.682,10.682,0,0,1,.365,5.9,7.863,7.863,0,0,1,4.972.915,8.3,8.3,0,0,1,10.7.254a7.181,7.181,0,0,1,4.219,3.361l-1.7.764A5.739,5.739,0,0,0,9.894,1.817a6.379,6.379,0,0,0-4.263.533A6.008,6.008,0,0,0,2.055,6.367a9.554,9.554,0,0,0,.893,6.413l1.068,2.385a10.909,10.909,0,0,0,2.607,3.72A6.8,6.8,0,0,0,10.1,20.619a6.5,6.5,0,0,0,3.8-.535A10.271,10.271,0,0,0,17.365,17.7a4.456,4.456,0,0,0,1.046-1.75l-2.334-5.211-5.419,2.428-.646-1.442L17.136,8.53Z" transform="translate(60.583 8.882)" fill="#0d6bd5"/>
        <path id="Path_263" data-name="Path 263" d="M15.223,0l3.153,14.763a7.648,7.648,0,0,1-.154,4.009,6.469,6.469,0,0,1-2.149,3.06,8.94,8.94,0,0,1-3.788,1.718,8.014,8.014,0,0,1-5.87-.7,6.984,6.984,0,0,1-3.234-4.706L0,3.253l1.811-.388,3.125,14.63A5.754,5.754,0,0,0,7.4,21.4a5.967,5.967,0,0,0,4.555.6,5.92,5.92,0,0,0,3.9-2.418,5.749,5.749,0,0,0,.651-4.549L13.382.394Z" transform="translate(81.101 0.937)" fill="#0d6bd5"/>
        <path id="Path_264" data-name="Path 264" d="M14.174,15.832l-10.038.163L1.958,22.242,0,22.274,8.009.029,9.785,0l8.726,21.974-1.944.032ZM4.687,14.406l8.868-.144L8.926,2.292Z" transform="translate(102.435 0)" fill="#0d6bd5"/>
        <path id="Path_265" data-name="Path 265" d="M9.829,14.178,3.509,13.023,1.852,22.091,0,21.753,3.974,0,11.04,1.292a8.2,8.2,0,0,1,5.13,2.679,5.986,5.986,0,0,1,1.1,5.073,5.984,5.984,0,0,1-1.9,3.462,6.37,6.37,0,0,1-3.69,1.609l3.746,10.255-.035.195-1.957-.358ZM3.793,11.469,9.426,12.5a5.3,5.3,0,0,0,3.961-.637,4.541,4.541,0,0,0,2.028-3.155A4.561,4.561,0,0,0,14.6,4.863a6.169,6.169,0,0,0-3.877-2.023L5.542,1.893Z" transform="translate(123.144 0.619)" fill="#0d6bd5"/>
        <path id="Path_266" data-name="Path 266" d="M15.561,16.958l-9.329-3.71L1.82,18.179,0,17.456,15.946,0,17.6.657,17.2,24.3,15.4,23.578ZM7.353,11.994l8.241,3.277.329-12.83Z" transform="translate(139.319 7.876)" fill="#0d6bd5"/>
        <path id="Path_267" data-name="Path 267" d="M13.7,27.53,12.149,26.5,12.055,3.7,1.567,19.45,0,18.407,12.255,0l1.567,1.044.1,22.818L24.416,8.1l1.543,1.026Z" transform="translate(158.417 14.882)" fill="#0d6bd5"/>
        <path id="Path_268" data-name="Path 268" d="M21.205,13.153,15.85,7.79,1.32,22.3,0,20.976,14.53,6.468,9.186,1.116,10.3,0,22.323,12.037Z" transform="translate(179.155 28.14)" fill="#0d6bd5"/>
        <path id="Path_269" data-name="Path 269" d="M15.657,16.587,9.788,8.072,2.36,13.192l6.749,9.791-1.3.9L0,12.551,18.205,0l7.767,11.267-1.3.9L17.966,2.435,11.088,7.176l5.87,8.515Z" transform="translate(187.343 45.415)" fill="#0d6bd5"/>
        <path id="Path_270" data-name="Path 270" d="M14.7,15.875,10.426,6.456,2.21,10.182l4.912,10.83-1.438.652L0,9.133,20.139,0,25.79,12.463l-1.438.652-4.88-10.76L11.864,5.8l4.272,9.419Z" transform="translate(196.507 62.85)" fill="#0d6bd5"/>
        <path id="Path_271" data-name="Path 271" d="M0,5.116,21.512,0l1.43,6.013a9.61,9.61,0,0,1-.076,5.03,8.552,8.552,0,0,1-2.671,4.093,11.168,11.168,0,0,1-4.832,2.391L13.382,18a11.168,11.168,0,0,1-5.389.049,8.546,8.546,0,0,1-4.225-2.469A9.912,9.912,0,0,1,1.4,11ZM20.408,2.183,1.968,6.568l.971,4.078A7.213,7.213,0,0,0,6.49,15.562a8.959,8.959,0,0,0,6.588.6l1.894-.45a8.747,8.747,0,0,0,5.463-3.438,7.091,7.091,0,0,0,.979-5.868Z" transform="translate(203.114 82.192)" fill="#0d6bd5"/>
      </g>
    </g>
  </g>
</svg>
