<svg xmlns="http://www.w3.org/2000/svg" width="85.271" height="70.881" viewBox="0 0 85.271 70.881">
  <g id="Group_116" data-name="Group 116" transform="translate(183.043 -611.143)">
    <path id="Path_203" data-name="Path 203" d="M-133.479,622.489c3.623-5.871,8.4-9.617,14.934-10.876a21.723,21.723,0,0,1,25.386,17.178c1.567,8.166-.5,15.314-6.481,21.183q-15.4,15.121-30.878,30.168c-2.543,2.48-3.432,2.5-5.89.109q-10.122-9.844-20.208-19.724c-1.65-1.614-1.846-3.078-.663-4.4,1.16-1.3,2.811-1.222,4.391.31q8.834,8.566,17.627,17.173c.524.511,1.073,1,1.759,1.633,1.432-1.375,2.832-2.7,4.21-4.045,8.848-8.647,17.818-17.173,26.5-25.987,7.217-7.33,5.807-19.815-2.576-25.628-10.125-7.021-24.167-.291-25.29,12.121-.047.522-.065,1.047-.1,1.662H-136.2a18.563,18.563,0,0,0-3.59-10.226,16.055,16.055,0,0,0-17.042-5.835c-6.2,1.69-11.319,7.532-11.766,13.9a33.21,33.21,0,0,0,.651,7.741c.376,2.231-.033,3.7-1.673,4.146-1.7.458-2.977-.417-3.7-2.523a22.644,22.644,0,0,1,11.28-27.187c9.643-4.844,21.243-1.637,27.521,7.608C-134.224,621.421-133.927,621.843-133.479,622.489Z" transform="translate(-5.117)" fill="#0d6bd5"/>
    <path id="Path_204" data-name="Path 204" d="M-153.527,680.628c-1.813,2.415-3.44,4.528-5,6.685a3.986,3.986,0,0,1-3.57,1.8c-5.846-.07-11.694-.02-17.541-.032-2.232,0-3.4-.983-3.4-2.78,0-1.782,1.179-2.8,3.411-2.808,5.108-.028,10.216-.063,15.323.021a2.981,2.981,0,0,0,2.8-1.445c1.822-2.576,3.757-5.073,5.67-7.584,2.016-2.648,4.08-2.442,5.651.56q3.45,6.595,6.88,13.2c.3.571.637,1.119,1.141,2,1.824-3.773,3.5-7.245,5.183-10.713,1.6-3.3,3.584-3.561,5.9-.77a9.19,9.19,0,0,1,.878,1.1,6.866,6.866,0,0,0,7.458,3.692,2.771,2.771,0,0,1,3.4,2.808c-.047,1.675-1.37,2.688-3.548,2.713a14.113,14.113,0,0,0-1.612.011c-3.446.44-6.4-.214-8.206-3.557-.11-.2-.369-.326-.727-.63-1.914,3.985-3.761,7.834-5.612,11.681-.611,1.269-1.1,2.608-2.9,2.671-1.86.066-2.511-1.2-3.21-2.549C-147.86,691.462-150.6,686.24-153.527,680.628Z" transform="translate(0 -36.673)" fill="#0d6bd5"/>
  </g>
</svg>
