<svg xmlns="http://www.w3.org/2000/svg" width="83.357" height="79.085" viewBox="0 0 83.357 79.085">
  <g id="Group_99" data-name="Group 99" transform="translate(14515.346 7544.863)">
    <path id="Path_128" data-name="Path 128" d="M382.357,289.841c-1.036,3.671-1.948,7.384-3.157,11a40.424,40.424,0,0,1-2.81,5.832c-1.073,2.039-2.168,2.538-3.605,1.794-1.395-.721-1.439-1.968-.533-4.012a85.049,85.049,0,0,0,4.542-11.11c3.94-13.967-6.152-21.446-15.487-23.214-7.029-1.331-13.277.624-18.657,5.383-1.51,1.336-2.438,1.284-4.056-.1-8.618-7.361-19.837-7.6-28.639-.649-6.055,4.784-7.228,11.085-5.541,18.2,1.746,7.37,5.631,13.686,9.993,19.728,6.9,9.556,15.245,17.722,24.125,25.381,1.568,1.352,2.843,1.38,4.295-.028.842-.816,1.773-1.54,2.678-2.289,1.146-.949,2.358-1.2,3.423.035a2.207,2.207,0,0,1-.286,3.428,60.931,60.931,0,0,1-5.285,4.034,4.715,4.715,0,0,1-5.258.042,26.078,26.078,0,0,1-3.764-2.666c-11.159-9.79-21.515-20.3-29.006-33.32-2.975-5.17-5.372-10.576-6.039-16.609a4.222,4.222,0,0,0-.289-.863V285a6.249,6.249,0,0,0,.333-1.043,18.238,18.238,0,0,1,3.94-9.072,26.565,26.565,0,0,1,35.909-4.953,2.157,2.157,0,0,0,2.99-.005,25.4,25.4,0,0,1,22.517-3.813c7.881,2.274,14,6.921,16.708,15.144.439,1.332.645,2.742.959,4.116Z" transform="translate(-14814.346 -7809.858)" fill="#0d6bd5"/>
    <path id="Path_130" data-name="Path 130" d="M426.07,389.707c-2.486,0-4.769.02-7.052-.006-2.018-.023-2.958-.93-2.988-2.958-.043-2.855-.047-5.712,0-8.566.033-1.893.853-2.7,2.75-2.74,2.347-.049,4.7-.012,7.288-.012,0-2.378-.009-4.587,0-6.8.013-2.49.723-3.213,3.193-3.227,2.793-.016,5.587-.027,8.38.006,1.967.023,2.7.7,2.759,2.687.07,2.349.016,4.7.016,7.325,2.361,0,4.57-.012,6.779,0,2.607.018,3.2.587,3.217,3.161.022,2.731.029,5.463,0,8.194-.025,2.123-.812,2.9-2.926,2.922-2.282.026-4.564.006-7.057.006,0,2.4.024,4.621-.007,6.837-.034,2.461-.794,3.2-3.254,3.211-2.669.013-5.339.021-8.008,0-2.135-.019-3.056-.931-3.084-3.058C426.048,394.463,426.07,392.232,426.07,389.707Zm-5.16-4.775c2.333,0,4.5-.011,6.66,0,2.472.016,3.309.869,3.325,3.387.014,2.155,0,4.31,0,6.514h4.852c0-2.285,0-4.447,0-6.609.007-2.546.747-3.281,3.333-3.293,2.2-.01,4.41,0,6.618,0v-4.9c-2.315,0-4.532,0-6.749,0-2.549-.006-3.191-.636-3.2-3.155-.009-2.266,0-4.532,0-6.775H430.9c0,2.27.008,4.43,0,6.591-.012,2.591-.745,3.334-3.279,3.34-2.213.006-4.425,0-6.707,0Z" transform="translate(-14888.248 -7872.826)" fill="#0d6bd5"/>
  </g>
</svg>
