<svg xmlns="http://www.w3.org/2000/svg" width="60.14" height="73.232" viewBox="0 0 60.14 73.232">
  <path id="Path_205" data-name="Path 205" d="M352.027,1038.951c-7.958-4.557-15.229-9.633-19.321-16.92-3.387-6.031-2.959-12.176,1.281-17.71,4.2-5.483,9.352-10.507,14.048-15.754,2.021-2.259,4.134-4.487,5.877-6.88,3.345-4.593,4.743-9.442,1.992-14.684,10.14,6.307,18.616,13.379,18.7,24.365.019,2.4-1.148,4.811-1.836,7.2-.53,1.843-1.416,3.772,1.237,5.024,1.566.739,4.587-.81,5.376-3.11.746-2.175.746-4.511,1.044-6.566,19.6,16.05,8.517,36.443-13.419,46.315,1.912-1.895,3.345-3.291,4.746-4.706,6.5-6.575,7.717-15.5-1.428-22.517-.542-.416-.976-.92-1.51-1.344-5.066-4.026-7.409-8.628-4.575-14.387-6.54,2.589-10.683,10.3-8.581,15.564.426,1.069,1.226,2.172,1.119,3.212a4.093,4.093,0,0,1-1.782,3.135,3.256,3.256,0,0,1-4.088-1.559,23.238,23.238,0,0,1-1.429-3.14C342.407,1019.039,343.632,1029.92,352.027,1038.951Z" transform="translate(-330.451 -967.003)" fill="#0d6bd5"/>
</svg>
