<svg xmlns="http://www.w3.org/2000/svg" width="80.542" height="80.716" viewBox="0 0 80.542 80.716">
  <g id="Group_115" data-name="Group 115" transform="translate(-569.785 -502.645)">
    <path id="Path_199" data-name="Path 199" d="M642.64,551.47l.856-5.1c7.334,5.242,8.32,16.9,1.915,23.984-.969,1.071-2.007,2.082-3.022,3.111-2.551,2.586-4.5,5.438-4.021,9.351-10.459-3.09-16.886-14.918-14.424-26.719a13.744,13.744,0,0,0,2.546,4.96,71.848,71.848,0,0,1,.074-8.59,30.286,30.286,0,0,1,2.355-7.886l1.95,9.192,1.125-.073c3.352-6.221,3.457-12.9,2.031-20.4,4.68,5.634,6.664,11.712,7.9,18.122Z" transform="translate(-24.552 -14.032)" fill="#0d6bd5"/>
    <path id="Path_200" data-name="Path 200" d="M684.35,546.762c4.349-15.909-13.122-34.443-26.252-34.855l-1.571,3.941-8.458-9.433,12.332-3.771c-.309,1.394-.547,2.466-.781,3.524C680.033,512.969,690.661,535.754,684.35,546.762Z" transform="translate(-35.836 0)" fill="#0d6bd5"/>
    <path id="Path_201" data-name="Path 201" d="M582.971,558.822l-3.639,11.5-9.548-8.8,3.484-1.1c-2.245-13.2.711-24.965,9.444-35.066a18.3,18.3,0,0,1,11.4-6.652c-13.406,7.563-17.988,19.2-17.129,33.593a3.725,3.725,0,0,0,.068.808c.477,1.639.581,3.61,1.6,4.792C579.381,558.749,581.343,558.528,582.971,558.822Z" transform="translate(0 -7.356)" fill="#0d6bd5"/>
    <path id="Path_202" data-name="Path 202" d="M654.784,620.383l-2.807-3.253,12.416-2.666c-.987,4.335-1.867,8.2-2.835,12.455l-2.752-2.334c-9.655,8.272-20.906,11.265-33.414,9.454-4.63-.67-8.946-2.317-12.13-6.143,8.536,5.337,17.572,5.275,26.762,2.486C645.9,628.6,651.08,625.611,654.784,620.383Z" transform="translate(-19.903 -51.188)" fill="#0d6bd5"/>
  </g>
</svg>
