<svg id="Group_101" data-name="Group 101" xmlns="http://www.w3.org/2000/svg" width="73.415" height="73.416" viewBox="0 0 73.415 73.416">
  <path id="Path_131" data-name="Path 131" d="M287.913,481.432a36.708,36.708,0,1,1,36.709-36.611A36.872,36.872,0,0,1,287.913,481.432Zm-.044-3.584c18.1.043,33.256-14.944,33.135-33.084a33.091,33.091,0,1,0-66.182.114C255.047,463.347,269.493,477.512,287.869,477.848Z" transform="translate(-251.207 -408.016)" fill="#0d6bd5"/>
  <path id="Path_132" data-name="Path 132" d="M302.081,526.828A27.49,27.49,0,0,1,274.991,502.9c-.171-1.368-.38-2.965,1.68-3.168,1.5-.148,2.076.737,2.251,2.144a23.347,23.347,0,0,0,19.3,20.645c12.041,2.323,24.6-6.227,26.835-18.277.156-.843.291-1.692.395-2.543.161-1.324.829-2.077,2.216-1.979a1.757,1.757,0,0,1,1.719,2.363c-.834,3.31-1.425,6.784-2.9,9.809A26.922,26.922,0,0,1,302.081,526.828Z" transform="translate(-265.47 -463.242)" fill="#0d6bd5"/>
  <ellipse id="Ellipse_1" data-name="Ellipse 1" cx="2.834" cy="6.945" rx="2.834" ry="6.945" transform="translate(25.269 17.568)" fill="#0d6bd5"/>
  <ellipse id="Ellipse_2" data-name="Ellipse 2" cx="2.834" cy="6.945" rx="2.834" ry="6.945" transform="translate(42.128 17.568)" fill="#0d6bd5"/>
</svg>
