<svg xmlns="http://www.w3.org/2000/svg" width="47" height="47" viewBox="0 0 47 47">
  <g id="Group_544" data-name="Group 544" transform="translate(-809 -2777)">
    <g id="Path_332" data-name="Path 332" transform="translate(809 2777)" fill="#0d6bd5">
      <path d="M 39 46.5 L 8 46.5 C 3.864490032196045 46.5 0.5 43.1355094909668 0.5 39 L 0.5 8 C 0.5 3.864490032196045 3.864490032196045 0.5 8 0.5 L 39 0.5 C 43.1355094909668 0.5 46.5 3.864490032196045 46.5 8 L 46.5 39 C 46.5 43.1355094909668 43.1355094909668 46.5 39 46.5 Z" stroke="none"/>
      <path d="M 8 1 C 4.140190124511719 1 1 4.140190124511719 1 8 L 1 39 C 1 42.85980987548828 4.140190124511719 46 8 46 L 39 46 C 42.85980987548828 46 46 42.85980987548828 46 39 L 46 8 C 46 4.140190124511719 42.85980987548828 1 39 1 L 8 1 M 8 0 L 39 0 C 43.41828155517578 0 47 3.581718444824219 47 8 L 47 39 C 47 43.41828155517578 43.41828155517578 47 39 47 L 8 47 C 3.581718444824219 47 0 43.41828155517578 0 39 L 0 8 C 0 3.581718444824219 3.581718444824219 0 8 0 Z" stroke="none" fill="#707070"/>
    </g>
    <g id="Group_543" data-name="Group 543">
      <g id="Group_144" data-name="Group 144" transform="translate(820.921 2786.205)">
        <g id="Group_21" data-name="Group 21">
          <rect id="Rectangle_7" data-name="Rectangle 7" width="5.466" height="17.657" transform="translate(0.525 8.828)" fill="#fff"/>
          <path id="Path_39" data-name="Path 39" d="M104.542,197.372a3.258,3.258,0,1,0-3.232-3.258A3.246,3.246,0,0,0,104.542,197.372Z" transform="translate(-101.31 -190.857)" fill="#fff"/>
        </g>
        <path id="Path_40" data-name="Path 40" d="M113.388,205.757c0-2.481,1.142-3.961,3.33-3.961,2.009,0,2.975,1.42,2.975,3.961v9.268h5.44V203.846c0-4.729-2.681-7.016-6.425-7.016a6.154,6.154,0,0,0-5.32,2.917V197.37h-5.243v17.656h5.243Z" transform="translate(-98.66 -188.541)" fill="#fff"/>
      </g>
    </g>
  </g>
</svg>
