<svg xmlns="http://www.w3.org/2000/svg" width="47" height="47" viewBox="0 0 47 47">
  <g id="Group_543" data-name="Group 543" transform="translate(-714 -2782)">
    <g id="Path_332" data-name="Path 332" transform="translate(714 2782)" fill="#0d6bd5">
      <path d="M 39 46.5 L 8 46.5 C 3.864490032196045 46.5 0.5 43.1355094909668 0.5 39 L 0.5 8 C 0.5 3.864490032196045 3.864490032196045 0.5 8 0.5 L 39 0.5 C 43.1355094909668 0.5 46.5 3.864490032196045 46.5 8 L 46.5 39 C 46.5 43.1355094909668 43.1355094909668 46.5 39 46.5 Z" stroke="none"/>
      <path d="M 8 1 C 4.140190124511719 1 1 4.140190124511719 1 8 L 1 39 C 1 42.85980987548828 4.140190124511719 46 8 46 L 39 46 C 42.85980987548828 46 46 42.85980987548828 46 39 L 46 8 C 46 4.140190124511719 42.85980987548828 1 39 1 L 8 1 M 8 0 L 39 0 C 43.41828155517578 0 47 3.581718444824219 47 8 L 47 39 C 47 43.41828155517578 43.41828155517578 47 39 47 L 8 47 C 3.581718444824219 47 0 43.41828155517578 0 39 L 0 8 C 0 3.581718444824219 3.581718444824219 0 8 0 Z" stroke="none" fill="#707070"/>
    </g>
    <path id="Path_282" data-name="Path 282" d="M44.444,159.983a16.676,16.676,0,0,0,9.029,2.646c10.937,0,17.115-9.237,16.744-17.523a11.941,11.941,0,0,0,2.938-3.05,11.747,11.747,0,0,1-3.382.927,5.9,5.9,0,0,0,2.59-3.259,11.817,11.817,0,0,1-3.739,1.43,5.9,5.9,0,0,0-10.038,5.373,16.717,16.717,0,0,1-12.141-6.155,5.9,5.9,0,0,0,1.822,7.865A5.871,5.871,0,0,1,45.6,147.5a5.9,5.9,0,0,0,4.725,5.852,5.9,5.9,0,0,1-2.659.1,5.893,5.893,0,0,0,5.5,4.092A11.844,11.844,0,0,1,44.444,159.983Z" transform="translate(679.188 2654.061)" fill="#fff"/>
  </g>
</svg>
